<?xml version="1.0" standalone="no"?>
<!DOCTYPE svg PUBLIC "-//W3C//DTD SVG 20010904//EN"
 "http://www.w3.org/TR/2001/REC-SVG-20010904/DTD/svg10.dtd">
<svg version="1.0" xmlns="http://www.w3.org/2000/svg"
 width="512.000000pt" height="512.000000pt" viewBox="0 0 512.000000 512.000000"
 preserveAspectRatio="xMidYMid meet">

<g transform="translate(0.000000,512.000000) scale(0.100000,-0.100000)"
fill="rgb(99, 95, 199)" stroke="none">
<path d="M2083 5102 c-63 -23 -115 -61 -154 -115 -31 -43 -59 -122 -59 -168 0
-51 -20 -59 -140 -59 -86 0 -121 -4 -164 -21 -70 -26 -140 -93 -172 -164 l-24
-55 -412 0 c-378 0 -416 -2 -453 -19 -51 -23 -111 -89 -125 -138 -8 -27 -10
-626 -8 -2125 l3 -2086 30 -43 c17 -24 53 -57 80 -74 l48 -30 1716 -3 c1273
-2 1727 0 1758 9 57 16 121 72 149 133 l24 51 0 990 c-1 1067 2 1013 -53 1034
-27 10 -27 12 -27 104 l0 94 308 384 c169 211 314 398 321 414 8 17 16 67 19
113 4 77 3 86 -27 147 -63 128 -197 194 -334 166 -78 -17 -136 -58 -208 -150
-35 -44 -67 -80 -71 -80 -5 -1 -8 42 -8 94 0 79 3 95 15 95 9 0 27 11 40 25
l25 24 0 338 c-1 364 -3 381 -54 448 -15 19 -49 46 -76 60 l-49 25 -414 0
-414 0 -21 49 c-26 64 -84 126 -146 159 -45 23 -67 27 -179 31 -143 7 -157 13
-157 78 0 92 -79 206 -177 254 -43 21 -64 24 -203 26 -130 3 -163 0 -207 -15z
m361 -161 c43 -27 75 -86 76 -139 0 -41 24 -99 53 -130 44 -47 75 -56 214 -62
145 -6 165 -13 211 -80 19 -29 22 -46 22 -130 0 -80 -3 -99 -16 -104 -9 -3
-341 -6 -739 -6 -623 0 -724 2 -735 15 -8 10 -11 44 -8 108 3 83 6 97 30 129
42 56 80 68 205 68 93 0 115 3 153 23 68 34 99 81 112 167 9 61 16 79 46 112
46 50 75 58 217 55 107 -2 125 -5 159 -26z m-1072 -631 c3 -47 10 -67 34 -97
62 -78 7 -73 870 -73 l770 0 45 29 c52 33 80 82 87 154 l5 47 243 0 244 0 0
-579 c0 -566 0 -579 20 -604 11 -14 29 -29 40 -32 18 -6 20 -16 20 -101 l0
-95 -759 -947 -759 -947 -128 -255 -129 -255 -543 0 c-472 0 -544 2 -552 15
-6 9 -10 733 -10 1908 l0 1892 249 0 249 0 4 -60z m3118 -820 c55 -15 101 -69
107 -124 3 -24 3 -56 -1 -70 -3 -14 -62 -95 -129 -180 l-124 -155 -119 96
c-65 52 -120 96 -121 97 -4 4 241 302 259 314 18 13 62 29 83 31 6 1 26 -4 45
-9z m-365 -553 c55 -44 104 -84 109 -88 6 -5 -1502 -1903 -1579 -1988 -11 -11
-33 3 -129 80 -74 59 -113 96 -108 104 30 52 1589 1982 1597 1977 5 -3 55 -42
110 -85z m-375 -1062 c0 -79 -3 -95 -15 -95 -9 0 -27 -11 -40 -25 l-25 -24 0
-580 c0 -565 -1 -581 -20 -591 -13 -7 -197 -9 -557 -8 l-538 3 76 62 c62 51
170 179 594 707 285 355 519 646 521 646 2 0 4 -43 4 -95z"/>
<path d="M1734 3727 c-16 -14 -78 -97 -139 -186 -60 -88 -114 -160 -118 -161
-4 0 -46 34 -92 75 -92 81 -114 89 -159 54 -19 -15 -26 -30 -26 -54 0 -30 11
-44 106 -130 58 -52 117 -98 130 -101 46 -12 105 3 135 33 15 15 85 109 154
208 130 187 142 213 108 253 -29 34 -65 37 -99 9z"/>
<path d="M2190 3703 c-51 -19 -68 -85 -30 -123 20 -20 33 -20 583 -20 623 0
586 -4 602 62 6 22 1 33 -23 58 l-30 30 -544 -1 c-299 0 -550 -3 -558 -6z"/>
<path d="M2160 3350 c-27 -27 -26 -81 1 -106 20 -18 46 -19 576 -22 l554 -2
31 30 c24 25 29 36 23 58 -16 66 21 62 -602 62 -550 0 -563 0 -583 -20z"/>
<path d="M1727 2628 c-12 -13 -73 -97 -136 -186 l-113 -164 -21 19 c-12 11
-51 45 -86 76 -72 64 -114 74 -151 37 -33 -33 -26 -77 19 -120 161 -154 214
-184 284 -161 44 15 50 22 200 238 139 199 149 224 101 262 -35 27 -69 27 -97
-1z"/>
<path d="M2156 2608 c-21 -30 -20 -71 3 -99 l19 -24 562 0 562 0 24 28 c29 34
30 56 3 91 l-20 26 -569 0 -569 0 -15 -22z"/>
<path d="M2160 2280 c-30 -30 -27 -83 6 -109 26 -20 39 -21 305 -21 185 0 286
4 303 11 51 23 55 103 7 128 -13 7 -125 11 -310 11 -278 0 -292 -1 -311 -20z"/>
<path d="M1743 1563 c-7 -2 -70 -85 -139 -184 -110 -158 -128 -178 -142 -167
-9 7 -48 41 -86 75 -79 70 -118 81 -156 43 -37 -37 -27 -78 33 -133 169 -161
221 -183 304 -131 12 7 83 101 157 208 149 212 159 237 110 275 -26 20 -55 25
-81 14z"/>
</g>
</svg>
